<svg width="30" height="30" viewBox="0 0 30 30" fill="none" xmlns="http://www.w3.org/2000/svg">
    <path
        d="M6.25 16.875C6.25 19.9813 8.76812 22.5 11.875 22.5C15.9375 22.5 17.5 20 17.5 20C17.5469 19.9531 17.61 19.8763 17.6794 19.7863C18.0256 20.5031 18.8319 21.695 20.2562 22.4137C20.5462 22.56 20.8981 22.5162 21.1337 22.2925L23.5512 20C23.8306 19.7394 23.8125 19.2906 23.5131 19.0531C23.3062 18.8888 22.8531 18.5044 22.8125 18.4656C21.875 17.5656 21.875 16.78 21.875 15.3125V8.4375C21.875 4.6875 19.3669 2.5 14.6875 2.5C10.9756 2.5 7.8925 4.66437 7.51875 7.65C7.47625 7.98812 7.71812 8.29875 8.05562 8.34687L10.8662 8.74375C11.1787 8.78813 11.465 8.58813 11.5506 8.28438C11.8525 7.2125 12.7094 6.25 14.2187 6.25C15.9375 6.25 16.875 7.23125 16.875 8.4375V10C8.125 10 6.25 13.7681 6.25 16.875ZM16.875 16.1425C16.875 17.4481 15.9206 18.6144 14.6206 18.7381C13.1294 18.8806 11.875 17.7119 11.875 16.25C11.875 14.8694 12.8125 13.125 16.875 13.125V16.1425Z"
        fill="#50A1F3" />
    <path
        d="M25.1724 23.7832C25.1355 23.8014 21.4105 25.6251 14.6874 25.6251C7.08617 25.6251 2.42867 21.9801 2.38242 21.9432C2.25555 21.842 2.07305 21.8551 1.9618 21.9714C1.84992 22.0889 1.84555 22.2714 1.95242 22.3932C1.9968 22.4445 6.51492 27.5001 14.6874 27.5001C21.5962 27.5001 25.3555 24.4332 25.5124 24.3026C25.6343 24.2014 25.6605 24.0245 25.5737 23.892C25.4874 23.7589 25.3143 23.7107 25.1724 23.7832Z"
        fill="#50A1F3" />
    <path
        d="M28.0337 22.2788C27.9387 22.1844 27.5074 21.875 25.9374 21.875C24.2993 21.875 23.3056 22.525 23.2643 22.5525C23.1456 22.6319 23.0949 22.7819 23.1431 22.9169C23.1912 23.0519 23.3299 23.1281 23.4662 23.1238C23.4862 23.1225 25.3249 22.96 26.5562 23.345C26.4768 24.7681 25.6668 26.4056 25.6581 26.4231C25.5949 26.55 25.6249 26.7031 25.7312 26.7975C25.7893 26.8488 25.8631 26.875 25.9374 26.875C25.9974 26.875 26.0581 26.8581 26.1106 26.8225C28.1018 25.495 28.1249 22.6213 28.1249 22.5C28.1249 22.4169 28.0918 22.3375 28.0337 22.2788Z"
        fill="#50A1F3" />
</svg>