<svg width="22" height="23" viewBox="0 0 22 23" fill="none" xmlns="http://www.w3.org/2000/svg">
    <g clip-path="url(#clip0)">
        <path
            d="M4.92407 21.6094C4.68303 21.6094 4.44368 21.534 4.2394 21.3859C3.85889 21.1094 3.68113 20.6342 3.78469 20.1757L5.20001 13.9255L0.400148 9.70549C0.0473249 9.39671 -0.0874594 8.9077 0.057396 8.46026C0.202251 8.01367 0.596366 7.69748 1.06299 7.65423L7.4138 7.07621L9.92468 1.18545C10.1098 0.752647 10.5315 0.473145 10.9999 0.473145C11.4684 0.473145 11.8901 0.752647 12.0752 1.18444L14.5861 7.07621L20.9359 7.65423C21.4035 7.69647 21.7976 8.01367 21.9425 8.46026C22.0873 8.90686 21.9534 9.39671 21.6006 9.70549L16.8007 13.9246L18.216 20.1747C18.3198 20.6342 18.1418 21.1094 17.7615 21.385C17.382 21.6607 16.8759 21.6819 16.4762 21.4411L10.9999 18.1602L5.52363 21.4429C5.33849 21.5532 5.1322 21.6094 4.92407 21.6094ZM10.9999 16.7469C11.2081 16.7469 11.4142 16.8029 11.5995 16.9132L16.7678 20.0121L15.432 14.1129C15.3367 13.6931 15.4789 13.2547 15.8025 12.9707L20.3346 8.98595L14.3385 8.44007C13.9068 8.40053 13.5355 8.12843 13.3668 7.72962L10.9999 2.17052L8.63022 7.73046C8.46337 8.12658 8.09209 8.39868 7.66138 8.43822L1.6644 8.9841L6.19638 12.9688C6.521 13.2537 6.663 13.6912 6.56682 14.1121L5.23207 20.0111L10.4004 16.9132C10.5855 16.8029 10.7918 16.7469 10.9999 16.7469ZM7.36529 7.19013C7.36529 7.19013 7.36529 7.19114 7.36428 7.19198L7.36529 7.19013ZM14.6327 7.18744L14.6337 7.18929C14.6337 7.18828 14.6337 7.18828 14.6327 7.18744Z"
            fill="#FAE5B2" />
    </g>
    <defs>
        <clipPath id="clip0">
            <rect width="22" height="22.0554" fill="white" />
        </clipPath>
    </defs>
</svg>