<svg width="18" height="19" viewBox="0 0 18 19" fill="none" xmlns="http://www.w3.org/2000/svg">
<g clip-path="url(#clip0)">
<path d="M4.65075 15.9622H1.38544V5.49488H4.65075V15.9622ZM3.01613 4.06706C1.97213 4.06706 1.125 3.20589 1.125 2.16666C1.125 1.6674 1.32424 1.18858 1.6789 0.835546C2.03355 0.482512 2.51457 0.28418 3.01613 0.28418C3.51768 0.28418 3.9987 0.482512 4.35335 0.835546C4.70801 1.18858 4.90725 1.6674 4.90725 2.16666C4.90725 3.20589 4.06013 4.06706 3.01613 4.06706ZM16.8716 15.9622H13.6136V10.8668C13.6136 9.65235 13.5889 8.09519 11.916 8.09519C10.2184 8.09519 9.95794 9.41438 9.95794 10.7795V15.9622H6.696V5.49488H9.82744V6.9227H9.873C10.3089 6.10016 11.3738 5.23227 12.9623 5.23227C16.2669 5.23227 16.8744 7.39864 16.8744 10.2123V15.9622H16.8716Z" fill="#50A1F3"/>
</g>
<defs>
<clipPath id="clip0">
<rect width="18" height="17.9177" fill="white" transform="translate(0 0.28418)"/>
</clipPath>
</defs>
</svg>
