<svg width="65" height="22" viewBox="0 0 65 22" fill="none" xmlns="http://www.w3.org/2000/svg">
    <path
        d="M9.33665 5.81818H7.81534V13.2955H7.72088L2.54048 5.81818H1.11861V16H2.65483V8.53267H2.74929L7.92472 16H9.33665V5.81818ZM11.5776 16H18.0208V14.6776H13.1138V11.5604H17.628V10.2429H13.1138V7.14062H17.9611V5.81818H11.5776V16ZM21.082 5.81818H19.3022L22.5288 10.9091L19.2823 16H21.0721L23.5181 12.0724H23.5977L26.0437 16H27.8335L24.6417 10.9091L27.8136 5.81818H26.0337L23.5977 9.80043H23.5181L21.082 5.81818ZM28.8352 7.14062H32.0071V16H33.5384V7.14062H36.7152V5.81818H28.8352V7.14062Z"
        fill="#28293D" />
    <path
        d="M64.3536 11.3536C64.5488 11.1583 64.5488 10.8417 64.3536 10.6464L61.1716 7.46447C60.9763 7.2692 60.6597 7.2692 60.4645 7.46447C60.2692 7.65973 60.2692 7.97631 60.4645 8.17157L63.2929 11L60.4645 13.8284C60.2692 14.0237 60.2692 14.3403 60.4645 14.5355C60.6597 14.7308 60.9763 14.7308 61.1716 14.5355L64.3536 11.3536ZM46 11.5L64 11.5V10.5L46 10.5V11.5Z"
        fill="#28293D" />
</svg>