<svg width="304" height="263" viewBox="0 0 304 263" fill="none" xmlns="http://www.w3.org/2000/svg">
    <g clip-path="url(#clip0)">
        <rect width="303" height="263" rx="5" fill="#FAFAFC" />
        <path
            d="M80.152 209H84.1044V201.628H88.2805C93.3196 201.628 96.0256 198.602 96.0256 194.405C96.0256 190.239 93.3516 187.182 88.3338 187.182H80.152V209ZM84.1044 198.379V190.484H87.7266C90.6882 190.484 91.9986 192.082 91.9986 194.405C91.9986 196.727 90.6882 198.379 87.7479 198.379H84.1044ZM119.194 198.091C119.194 191.038 114.89 186.884 109.17 186.884C103.438 186.884 99.1447 191.038 99.1447 198.091C99.1447 205.133 103.438 209.298 109.17 209.298C114.89 209.298 119.194 205.143 119.194 198.091ZM115.221 198.091C115.221 203.055 112.728 205.751 109.17 205.751C105.622 205.751 103.118 203.055 103.118 198.091C103.118 193.126 105.622 190.431 109.17 190.431C112.728 190.431 115.221 193.126 115.221 198.091ZM130.565 209C137.212 209 141.154 204.888 141.154 198.07C141.154 191.273 137.212 187.182 130.714 187.182H123.171V209H130.565ZM127.123 205.58V190.602H130.49C134.922 190.602 137.234 193.073 137.234 198.07C137.234 203.087 134.922 205.58 130.373 205.58H127.123ZM163.825 194.543C163.154 189.696 159.425 186.884 154.588 186.884C148.889 186.884 144.595 191.038 144.595 198.091C144.595 205.133 148.835 209.298 154.588 209.298C159.776 209.298 163.218 205.942 163.825 201.777L159.84 201.756C159.34 204.312 157.252 205.751 154.642 205.751C151.105 205.751 148.569 203.098 148.569 198.091C148.569 193.169 151.083 190.431 154.652 190.431C157.305 190.431 159.382 191.933 159.84 194.543H163.825ZM170.486 209L172.287 203.62H180.49L182.301 209H186.519L178.828 187.182H173.948L166.267 209H170.486ZM173.352 200.445L176.303 191.656H176.473L179.424 200.445H173.352ZM201.139 193.18H204.942C204.868 189.494 201.725 186.884 197.08 186.884C192.499 186.884 189.058 189.462 189.069 193.318C189.069 196.45 191.295 198.251 194.885 199.178L197.368 199.817C199.722 200.413 201.277 201.148 201.288 202.842C201.277 204.707 199.509 205.953 196.931 205.953C194.459 205.953 192.542 204.845 192.382 202.555H188.493C188.653 206.891 191.881 209.33 196.963 209.33C202.194 209.33 205.23 206.72 205.24 202.874C205.23 199.092 202.108 197.366 198.827 196.589L196.782 196.077C194.992 195.651 193.053 194.895 193.074 193.073C193.085 191.433 194.555 190.229 197.027 190.229C199.381 190.229 200.937 191.326 201.139 193.18ZM208.045 190.495H214.789V209H218.709V190.495H225.453V187.182H208.045V190.495Z"
            fill="#555770" />
        <path d="M303.5 221L303 245V258C303 260.761 300.761 263 298 263H246L303.5 221Z" fill="#F2F2F5" />
        <ellipse cx="151.5" cy="159.5" rx="50.5" ry="7.5" fill="#EBEBF0" />
        <g clip-path="url(#clip1)">
            <path
                d="M181.297 85.2109H172.508V64.5078C172.508 53.1998 163.308 44 152 44C140.692 44 131.492 53.1998 131.492 64.5078V85.2109H122.703C121.085 85.2109 119.773 86.5227 119.773 88.1406V94C119.773 110.782 133.598 124.515 150 126V140H134C132.382 140 131.5 140.382 131.5 142C131.5 143.618 132.804 144 134.422 144H169.578C171.196 144 172 143.618 172 142C172 141 172 140 170 140H154V126C170.402 124.515 184.227 110.782 184.227 94V88.1406C184.227 86.5227 182.915 85.2109 181.297 85.2109ZM135.5 64.7293C135.5 56.6522 143.923 48 152 48C160.077 48 169 56.4229 169 64.5V94.0489C169 102.126 160.077 111 152 111C143.923 111 135.5 102.126 135.5 94.0489V64.7293ZM180 94.5C180 109.039 166.539 122.5 152 122.5C137.461 122.5 123 108.539 123 94V89H131.5L131.492 94C131.492 105.308 140.692 114.508 152 114.508C163.308 114.508 172.508 105.308 172.508 94V89H180V94.5Z"
                fill="#8E90A6" />
            <path
                d="M108.284 85.9479C108.632 85.6033 108.848 85.1254 108.851 84.5978L109.04 46.7159C109.045 45.6579 108.194 44.7986 107.137 44.7933C106.079 44.788 105.219 45.6388 105.214 46.6967L105.025 84.5787C105.019 85.6367 105.87 86.496 106.928 86.5013C107.456 86.5039 107.936 86.2925 108.284 85.9479Z"
                fill="#8E90A6" />
            <path
                d="M120.073 50.8299L119.978 69.7708C119.973 70.8288 120.824 71.6881 121.882 71.6934C122.409 71.696 122.889 71.4847 123.238 71.1401C123.586 70.7954 123.802 70.3176 123.804 69.7899L123.899 50.849C123.904 49.791 123.054 48.9317 121.996 48.9264C120.938 48.9211 120.078 49.7719 120.073 50.8299Z"
                fill="#8E90A6" />
            <path
                d="M93.4758 70.9916C93.8239 70.647 94.0401 70.1691 94.0427 69.6415L94.1374 50.7005C94.1427 49.6426 93.2919 48.7832 92.2339 48.7779C91.1759 48.7727 90.3166 49.6234 90.3113 50.6814L90.2166 69.6224C90.2113 70.6804 91.0621 71.5397 92.1201 71.545C92.6477 71.5476 93.1278 71.3362 93.4758 70.9916Z"
                fill="#8E90A6" />
        </g>
    </g>
    <defs>
        <clipPath id="clip0">
            <rect width="303.5" height="263" fill="white" />
        </clipPath>
        <clipPath id="clip1">
            <rect width="133" height="114" fill="white" transform="translate(85 30)" />
        </clipPath>
    </defs>
</svg>