<svg width="98" height="22" viewBox="0 0 98 22" fill="none" xmlns="http://www.w3.org/2000/svg">
    <path
        d="M28.1186 16H29.6548V12.4205H31.7429C34.1044 12.4205 35.2727 10.9936 35.2727 9.11435C35.2727 7.24006 34.1143 5.81818 31.7479 5.81818H28.1186V16ZM29.6548 11.1179V7.13565H31.5838C33.1051 7.13565 33.7266 7.96094 33.7266 9.11435C33.7266 10.2678 33.1051 11.1179 31.6037 11.1179H29.6548ZM37.0737 16H38.6099V12.147H40.698C40.7328 12.147 40.7626 12.147 40.7974 12.147L42.8656 16H44.6156L42.3585 11.8786C43.6064 11.4162 44.2278 10.3771 44.2278 9.00994C44.2278 7.13565 43.0645 5.81818 40.7029 5.81818H37.0737V16ZM38.6099 10.8246V7.13565H40.5389C42.0552 7.13565 42.6816 7.85653 42.6816 9.00994C42.6816 10.1584 42.0552 10.8246 40.5588 10.8246H38.6099ZM46.0971 16H52.5403V14.6776H47.6333V11.5604H52.1475V10.2429H47.6333V7.14062H52.4806V5.81818H46.0971V16ZM55.4226 5.81818H53.7621L57.4261 16H59.201L62.8651 5.81818H61.2045L58.3707 14.1108H58.2564L55.4226 5.81818ZM65.8716 5.81818H64.3354V16H65.8716V5.81818ZM76.9533 10.9091C76.9533 7.6527 75.0044 5.67898 72.3695 5.67898C69.7246 5.67898 67.7807 7.6527 67.7807 10.9091C67.7807 14.1605 69.7246 16.1392 72.3695 16.1392C75.0044 16.1392 76.9533 14.1655 76.9533 10.9091ZM75.432 10.9091C75.432 13.3899 74.1195 14.7372 72.3695 14.7372C70.6145 14.7372 69.307 13.3899 69.307 10.9091C69.307 8.42827 70.6145 7.08097 72.3695 7.08097C74.1195 7.08097 75.432 8.42827 75.432 10.9091ZM85.4212 5.81818V12.5298C85.4212 13.9567 84.2827 14.7571 82.9105 14.7571C81.5483 14.7571 80.4048 13.9567 80.4048 12.5298V5.81818H78.8686V12.5547C78.8686 14.8516 80.6584 16.169 82.9105 16.169C85.1626 16.169 86.9574 14.8516 86.9574 12.5547V5.81818H85.4212ZM94.7441 8.4929H96.2257C96.1809 6.86222 94.7392 5.67898 92.671 5.67898C90.6277 5.67898 89.0616 6.8473 89.0616 8.60227C89.0616 10.0192 90.0758 10.8494 91.7115 11.2919L92.9146 11.62C94.0034 11.9084 94.8436 12.2663 94.8436 13.1712C94.8436 14.1655 93.894 14.8217 92.5865 14.8217C91.4032 14.8217 90.4189 14.2947 90.3294 13.1861H88.7882C88.8876 15.0305 90.3145 16.169 92.5964 16.169C94.9877 16.169 96.3649 14.9112 96.3649 13.1861C96.3649 11.3516 94.7292 10.6406 93.4366 10.3224L92.4423 10.0639C91.6468 9.86009 90.5879 9.48722 90.5929 8.51278C90.5929 7.64773 91.3833 7.00639 92.6362 7.00639C93.8045 7.00639 94.6348 7.55327 94.7441 8.4929Z"
        fill="#28293D" />
    <path
        d="M0.646446 10.6464C0.451185 10.8417 0.451185 11.1583 0.646446 11.3536L3.82843 14.5355C4.02369 14.7308 4.34027 14.7308 4.53553 14.5355C4.7308 14.3403 4.7308 14.0237 4.53553 13.8284L1.70711 11L4.53553 8.17157C4.7308 7.97631 4.7308 7.65973 4.53553 7.46447C4.34027 7.2692 4.02369 7.2692 3.82843 7.46447L0.646446 10.6464ZM19 10.5L1 10.5V11.5L19 11.5V10.5Z"
        fill="#28293D" />
</svg>