<svg width="17" height="14" viewBox="0 0 17 14" fill="none" xmlns="http://www.w3.org/2000/svg">
    <g clip-path="url(#clip0)">
        <path
            d="M16.9981 1.65076C16.5247 2.36138 15.9439 2.96715 15.2557 3.46807C15.2625 3.60241 15.2659 3.75425 15.2659 3.92359C15.2659 4.86449 15.13 5.80652 14.8581 6.74969C14.5862 7.69288 14.171 8.59567 13.6123 9.45807C13.0536 10.3205 12.3881 11.0845 11.6158 11.7501C10.8435 12.4157 9.91517 12.9464 8.83079 13.3423C7.74641 13.7381 6.58424 13.936 5.34429 13.936C3.40914 13.936 1.62706 13.4088 -0.00195312 12.3544C0.287178 12.3869 0.564478 12.4031 0.829949 12.4031C2.44661 12.4031 3.89054 11.9006 5.16176 10.8956C4.40798 10.8816 3.73292 10.6474 3.13656 10.1931C2.54021 9.73867 2.12982 9.15806 1.90538 8.45121C2.12722 8.49386 2.34617 8.51518 2.56223 8.51518C2.87324 8.51518 3.17926 8.47425 3.48031 8.39238C2.67588 8.22979 2.00855 7.82546 1.4783 7.17938C0.948065 6.53332 0.682949 5.78763 0.682949 4.94233V4.89877C1.17671 5.17466 1.70338 5.32142 2.26296 5.33903C1.78642 5.01843 1.40861 4.60035 1.1295 4.0848C0.850378 3.56925 0.710816 3.01134 0.710816 2.41106C0.710816 1.77796 0.868017 1.18843 1.18242 0.642465C2.05721 1.72582 3.11721 2.59168 4.3624 3.24003C5.60762 3.88839 6.9435 4.24847 8.37004 4.32027C8.3092 4.06437 8.27872 3.79734 8.27861 3.51915C8.27861 2.54785 8.61921 1.7185 9.30042 1.0311C9.98163 0.3437 10.8035 0 11.7659 0C12.7736 0 13.6224 0.370285 14.3123 1.11086C15.1005 0.953294 15.8385 0.668307 16.5264 0.255893C16.2614 1.09754 15.7507 1.74681 14.9945 2.2037C15.6896 2.12035 16.3574 1.93604 16.998 1.65076H16.9981Z"
            fill="#50A1F3" />
    </g>
    <defs>
        <clipPath id="clip0">
            <rect width="17" height="13.936" fill="white" />
        </clipPath>
    </defs>
</svg>