<svg width="30" height="24" viewBox="0 0 30 24" fill="none" xmlns="http://www.w3.org/2000/svg">
<path d="M29.2504 2.83963C28.2031 3.30354 27.0765 3.61308 25.8882 3.75954C27.0963 3.04229 28.0257 1.89833 28.4619 0.546958C27.3314 1.20958 26.079 1.69646 24.7466 1.95296C23.6826 0.824833 22.165 0.125 20.4835 0.125C17.2535 0.125 14.6355 2.72008 14.6355 5.92C14.6355 6.37283 14.6885 6.81379 14.7883 7.24208C9.92901 6.99825 5.61917 4.68817 2.73592 1.18267C2.22926 2.03925 1.94426 3.04229 1.94426 4.10075C1.94426 6.11238 2.97421 7.88333 4.54488 8.92675C3.58617 8.89746 2.68367 8.63067 1.89359 8.20317C1.89359 8.22058 1.89359 8.24671 1.89359 8.27125C1.89359 11.0825 3.90996 13.4234 6.58263 13.9562C6.09417 14.09 5.57801 14.1644 5.04601 14.1644C4.66838 14.1644 4.30026 14.1217 3.94401 14.0575C4.68817 16.355 6.84705 18.0341 9.40492 18.084C7.40359 19.6356 4.88292 20.565 2.14217 20.565C1.66876 20.565 1.20563 20.5381 0.748047 20.4827C3.33759 22.1223 6.41242 23.0833 9.71288 23.0833C20.4677 23.0833 26.3513 14.2515 26.3513 6.58975C26.3513 6.33879 26.3434 6.08863 26.3316 5.84163C27.4795 5.03096 28.4691 4.00813 29.2504 2.83963Z" fill="#03A9F4"/>
</svg>
